<svg width="1240" height="720" xmlns="http://www.w3.org/2000/svg" viewBox="0 0 1240 720" font-family="Pretendard Variable,Pretendard,Apple SD Gothic Neo,sans-serif" xmlns:xlink="http://www.w3.org/1999/xlink" role="img"><rect x="0" y="0" width="1240" height="720" rx="0" fill="#fff" stroke="none" stroke-width="1"/><polygon points="138.8,650.0 781.2,650.0 1038.4,501.5 396.0,501.5" fill="#fafafc" stroke="#c9c9ce" stroke-width="1"/><polygon points="385.1,507.8 1027.5,507.8 1027.5,147.0 385.1,147.0" fill="#f3f3f6" stroke="#c9c9ce" stroke-width="1" fill-opacity="0.9" stroke-dasharray="6 3"/><polygon points="399.8,499.3 1042.2,499.3 1042.2,138.5 399.8,138.5" fill="#d6d6dc" stroke="#8e8e93" stroke-width="1" fill-opacity="0.5" stroke-dasharray="6 3"/><polygon points="492.5,574.1 578.2,524.6 524.0,526.3" fill="#fdecea" stroke="#c0392b" stroke-width="1" fill-opacity="0.9" stroke-dasharray="4 3"/><polygon points="690.5,574.1 776.2,524.6 824.5,526.3" fill="#fdecea" stroke="#c0392b" stroke-width="1" fill-opacity="0.9" stroke-dasharray="4 3"/><polygon points="549.6,541.1 747.6,541.1 747.6,501.5 549.6,501.5" fill="#dcdce2" stroke="#6e6e73" stroke-width="1"/><polygon points="747.6,541.1 776.2,524.6 776.2,485.0 747.6,501.5" fill="#dcdce2" stroke="#6e6e73" stroke-width="1"/><polygon points="549.6,501.5 747.6,501.5 776.2,485.0 578.2,485.0" fill="#d6d6dc" stroke="#6e6e73" stroke-width="1"/><polygon points="513.5,542.2 371.2,550.8 371.2,511.2 513.5,502.6" fill="#dcdce2" stroke="#6e6e73" stroke-width="1"/><polygon points="524.0,526.3 513.5,542.2 513.5,502.6 524.0,486.7" fill="#dcdce2" stroke="#6e6e73" stroke-width="1"/><polygon points="513.5,502.6 371.2,511.2 381.7,495.2 524.0,486.7" fill="#d6d6dc" stroke="#6e6e73" stroke-width="1"/><polygon points="779.8,542.2 892.5,550.8 892.5,511.2 779.8,502.6" fill="#dcdce2" stroke="#6e6e73" stroke-width="1"/><polygon points="892.5,550.8 937.2,534.8 937.2,495.2 892.5,511.2" fill="#dcdce2" stroke="#6e6e73" stroke-width="1"/><polygon points="779.8,502.6 892.5,511.2 937.2,495.2 824.5,486.7" fill="#d6d6dc" stroke="#6e6e73" stroke-width="1"/><polygon points="521.0,557.6 719.0,557.6 719.0,531.2 521.0,531.2" fill="#e9e9ee" stroke="#6e6e73" stroke-width="1"/><polygon points="719.0,557.6 747.6,541.1 747.6,514.7 719.0,531.2" fill="#e9e9ee" stroke="#6e6e73" stroke-width="1"/><polygon points="521.0,531.2 719.0,531.2 747.6,514.7 549.6,514.7" fill="#e2e2e6" stroke="#6e6e73" stroke-width="1"/><polygon points="503.0,558.2 360.7,566.7 360.7,540.3 503.0,531.8" fill="#e9e9ee" stroke="#6e6e73" stroke-width="1"/><polygon points="513.5,542.2 503.0,558.2 503.0,531.8 513.5,515.8" fill="#e9e9ee" stroke="#6e6e73" stroke-width="1"/><polygon points="503.0,531.8 360.7,540.3 371.2,524.4 513.5,515.8" fill="#e2e2e6" stroke="#6e6e73" stroke-width="1"/><polygon points="735.1,558.2 847.9,566.7 847.9,540.3 735.1,531.8" fill="#e9e9ee" stroke="#6e6e73" stroke-width="1"/><polygon points="847.9,566.7 892.5,550.8 892.5,524.4 847.9,540.3" fill="#e9e9ee" stroke="#6e6e73" stroke-width="1"/><polygon points="735.1,531.8 847.9,540.3 892.5,524.4 779.8,515.8" fill="#e2e2e6" stroke="#6e6e73" stroke-width="1"/><polygon points="492.5,574.1 690.5,574.1 690.5,560.9 492.5,560.9" fill="#f4f4f6" stroke="#6e6e73" stroke-width="1"/><polygon points="690.5,574.1 719.0,557.6 719.0,544.4 690.5,560.9" fill="#f4f4f6" stroke="#6e6e73" stroke-width="1"/><polygon points="492.5,560.9 690.5,560.9 719.0,544.4 521.0,544.4" fill="#ececef" stroke="#6e6e73" stroke-width="1"/><polygon points="492.5,574.1 350.2,582.6 350.2,569.4 492.5,560.9" fill="#f4f4f6" stroke="#6e6e73" stroke-width="1"/><polygon points="503.0,558.2 492.5,574.1 492.5,560.9 503.0,545.0" fill="#f4f4f6" stroke="#6e6e73" stroke-width="1"/><polygon points="492.5,560.9 350.2,569.4 360.7,553.5 503.0,545.0" fill="#ececef" stroke="#6e6e73" stroke-width="1"/><polygon points="690.5,574.1 803.2,582.6 803.2,569.4 690.5,560.9" fill="#f4f4f6" stroke="#6e6e73" stroke-width="1"/><polygon points="803.2,582.6 847.9,566.7 847.9,553.5 803.2,569.4" fill="#f4f4f6" stroke="#6e6e73" stroke-width="1"/><polygon points="690.5,560.9 803.2,569.4 847.9,553.5 735.1,545.0" fill="#ececef" stroke="#6e6e73" stroke-width="1"/><polygon points="676.4,494.4 685.9,488.9 685.9,458.1 676.4,463.6" fill="#111" stroke="#6e6e73" stroke-width="1"/><polygon points="645.6,494.4 676.4,494.4 676.4,463.6 645.6,463.6" fill="#1d1d1f" stroke="#6e6e73" stroke-width="1"/><polygon points="645.6,463.6 676.4,463.6 685.9,458.1 655.1,458.1" fill="#3a3a3c" stroke="#6e6e73" stroke-width="1"/><polygon points="498.3,495.7 505.9,491.3 505.9,464.9 498.3,469.3" fill="#c9c9ce" stroke="#6e6e73" stroke-width="1"/><polygon points="471.9,495.7 498.3,495.7 498.3,469.3 471.9,469.3" fill="#6e6e73" stroke="#6e6e73" stroke-width="1"/><polygon points="471.9,469.3 498.3,469.3 505.9,464.9 479.5,464.9" fill="#f7f7fa" stroke="#6e6e73" stroke-width="1"/><polygon points="860.9,462.7 868.5,458.3 868.5,453.9 860.9,458.3" fill="#111" stroke="#6e6e73" stroke-width="1"/><polygon points="803.7,462.7 860.9,462.7 860.9,458.3 803.7,458.3" fill="#1d1d1f" stroke="#6e6e73" stroke-width="1"/><polygon points="803.7,458.3 860.9,458.3 868.5,453.9 811.3,453.9" fill="#3a3a3c" stroke="#6e6e73" stroke-width="1"/><polygon points="721.0,496.6 734.3,488.9 734.3,453.6 721.0,461.4" fill="#a02e00" stroke="#6e6e73" stroke-width="1"/><polygon points="683.6,496.6 721.0,496.6 721.0,461.4 683.6,461.4" fill="#c93400" stroke="#6e6e73" stroke-width="1"/><polygon points="683.6,461.4 721.0,461.4 734.3,453.6 696.9,453.6" fill="#e08a60" stroke="#6e6e73" stroke-width="1"/><polygon points="762.8,496.6 776.1,488.9 776.1,458.1 762.8,465.8" fill="#a02e00" stroke="#6e6e73" stroke-width="1"/><polygon points="727.6,496.6 762.8,496.6 762.8,465.8 727.6,465.8" fill="#c93400" stroke="#6e6e73" stroke-width="1"/><polygon points="727.6,465.8 762.8,465.8 776.1,458.1 740.9,458.1" fill="#e08a60" stroke="#6e6e73" stroke-width="1"/><polygon points="639.6,465.8 647.2,461.4 647.2,450.4 639.6,454.8" fill="#c9c9ce" stroke="#6e6e73" stroke-width="1"/><polygon points="617.6,465.8 639.6,465.8 639.6,454.8 617.6,454.8" fill="#3a3a3c" stroke="#6e6e73" stroke-width="1"/><polygon points="617.6,454.8 639.6,454.8 647.2,450.4 625.2,450.4" fill="#f7f7fa" stroke="#6e6e73" stroke-width="1"/><polygon points="696.8,465.8 704.4,461.4 704.4,450.4 696.8,454.8" fill="#c9c9ce" stroke="#6e6e73" stroke-width="1"/><polygon points="674.8,465.8 696.8,465.8 696.8,454.8 674.8,454.8" fill="#3a3a3c" stroke="#6e6e73" stroke-width="1"/><polygon points="674.8,454.8 696.8,454.8 704.4,450.4 682.4,450.4" fill="#f7f7fa" stroke="#6e6e73" stroke-width="1"/><polygon points="427.2,500.0 434.8,495.6 434.8,469.2 427.2,473.6" fill="#c9c9ce" stroke="#6e6e73" stroke-width="1"/><polygon points="400.8,500.0 427.2,500.0 427.2,473.6 400.8,473.6" fill="#6e6e73" stroke="#6e6e73" stroke-width="1"/><polygon points="400.8,473.6 427.2,473.6 434.8,469.2 408.4,469.2" fill="#f7f7fa" stroke="#6e6e73" stroke-width="1"/><polygon points="917.2,467.0 924.8,462.6 924.8,458.2 917.2,462.6" fill="#111" stroke="#6e6e73" stroke-width="1"/><polygon points="860.0,467.0 917.2,467.0 917.2,462.6 860.0,462.6" fill="#1d1d1f" stroke="#6e6e73" stroke-width="1"/><polygon points="860.0,462.6 917.2,462.6 924.8,458.2 867.6,458.2" fill="#3a3a3c" stroke="#6e6e73" stroke-width="1"/><polygon points="486.3,500.1 492.0,496.8 492.0,422.0 486.3,425.3" fill="#c9c9ce" stroke="#6e6e73" stroke-width="1"/><polygon points="468.7,500.1 486.3,500.1 486.3,425.3 468.7,425.3" fill="#8e8e93" stroke="#6e6e73" stroke-width="1"/><polygon points="468.7,425.3 486.3,425.3 492.0,422.0 474.4,422.0" fill="#a1a1a6" stroke="#6e6e73" stroke-width="1"/><polygon points="415.1,504.4 420.8,501.1 420.8,426.3 415.1,429.6" fill="#c9c9ce" stroke="#6e6e73" stroke-width="1"/><polygon points="397.5,504.4 415.1,504.4 415.1,429.6 397.5,429.6" fill="#8e8e93" stroke="#6e6e73" stroke-width="1"/><polygon points="397.5,429.6 415.1,429.6 420.8,426.3 403.2,426.3" fill="#a1a1a6" stroke="#6e6e73" stroke-width="1"/><polygon points="492.5,525.7 495.5,524.0 495.5,464.6 492.5,466.3" fill="#c9c9ce" stroke="#6e6e73" stroke-width="1"/><polygon points="485.4,525.7 492.5,525.7 492.5,466.3 485.4,466.3" fill="#8e8e93" stroke="#6e6e73" stroke-width="1"/><polygon points="485.4,466.3 492.5,466.3 495.5,464.6 488.5,464.6" fill="#b9b9c0" stroke="#6e6e73" stroke-width="1"/><polygon points="775.3,508.9 781.0,505.6 781.0,477.0 775.3,480.3" fill="#b85a30" stroke="#6e6e73" stroke-width="1"/><polygon points="762.1,508.9 775.3,508.9 775.3,480.3 762.1,480.3" fill="#e07a50" stroke="#6e6e73" stroke-width="1"/><polygon points="762.1,480.3 775.3,480.3 781.0,477.0 767.8,477.0" fill="#f0a07a" stroke="#6e6e73" stroke-width="1"/><polygon points="775.3,527.1 782.9,522.7 782.9,507.3 775.3,511.7" fill="#a02e00" stroke="#6e6e73" stroke-width="1"/><polygon points="760.3,527.1 775.3,527.1 775.3,511.7 760.3,511.7" fill="#c93400" stroke="#6e6e73" stroke-width="1"/><polygon points="760.3,511.7 775.3,511.7 782.9,507.3 767.9,507.3" fill="#e08a60" stroke="#6e6e73" stroke-width="1"/><polygon points="456.9,527.9 459.9,526.1 459.9,466.7 456.9,468.5" fill="#c9c9ce" stroke="#6e6e73" stroke-width="1"/><polygon points="449.8,527.9 456.9,527.9 456.9,468.5 449.8,468.5" fill="#8e8e93" stroke="#6e6e73" stroke-width="1"/><polygon points="449.8,468.5 456.9,468.5 459.9,466.7 452.9,466.7" fill="#b9b9c0" stroke="#6e6e73" stroke-width="1"/><polygon points="803.5,511.0 809.2,507.7 809.2,479.1 803.5,482.4" fill="#b85a30" stroke="#6e6e73" stroke-width="1"/><polygon points="790.3,511.0 803.5,511.0 803.5,482.4 790.3,482.4" fill="#e07a50" stroke="#6e6e73" stroke-width="1"/><polygon points="790.3,482.4 803.5,482.4 809.2,479.1 796.0,479.1" fill="#f0a07a" stroke="#6e6e73" stroke-width="1"/><polygon points="803.4,529.2 811.0,524.8 811.0,509.4 803.4,513.8" fill="#a02e00" stroke="#6e6e73" stroke-width="1"/><polygon points="788.5,529.2 803.4,529.2 803.4,513.8 788.5,513.8" fill="#c93400" stroke="#6e6e73" stroke-width="1"/><polygon points="788.5,513.8 803.4,513.8 811.0,509.4 796.1,509.4" fill="#e08a60" stroke="#6e6e73" stroke-width="1"/><polygon points="421.3,530.0 424.4,528.3 424.4,468.9 421.3,470.6" fill="#c9c9ce" stroke="#6e6e73" stroke-width="1"/><polygon points="414.3,530.0 421.3,530.0 421.3,470.6 414.3,470.6" fill="#8e8e93" stroke="#6e6e73" stroke-width="1"/><polygon points="414.3,470.6 421.3,470.6 424.4,468.9 417.3,468.9" fill="#b9b9c0" stroke="#6e6e73" stroke-width="1"/><polygon points="831.7,513.2 837.4,509.9 837.4,481.3 831.7,484.6" fill="#b85a30" stroke="#6e6e73" stroke-width="1"/><polygon points="818.5,513.2 831.7,513.2 831.7,484.6 818.5,484.6" fill="#e07a50" stroke="#6e6e73" stroke-width="1"/><polygon points="818.5,484.6 831.7,484.6 837.4,481.3 824.2,481.3" fill="#f0a07a" stroke="#6e6e73" stroke-width="1"/><polygon points="831.6,531.3 839.2,526.9 839.2,511.5 831.6,515.9" fill="#a02e00" stroke="#6e6e73" stroke-width="1"/><polygon points="816.6,531.3 831.6,531.3 831.6,515.9 816.6,515.9" fill="#c93400" stroke="#6e6e73" stroke-width="1"/><polygon points="816.6,515.9 831.6,515.9 839.2,511.5 824.3,511.5" fill="#e08a60" stroke="#6e6e73" stroke-width="1"/><polygon points="385.7,532.1 388.8,530.4 388.8,471.0 385.7,472.7" fill="#c9c9ce" stroke="#6e6e73" stroke-width="1"/><polygon points="378.7,532.1 385.7,532.1 385.7,472.7 378.7,472.7" fill="#8e8e93" stroke="#6e6e73" stroke-width="1"/><polygon points="378.7,472.7 385.7,472.7 388.8,471.0 381.7,471.0" fill="#b9b9c0" stroke="#6e6e73" stroke-width="1"/><polygon points="859.9,515.3 865.6,512.0 865.6,483.4 859.9,486.7" fill="#b85a30" stroke="#6e6e73" stroke-width="1"/><polygon points="846.7,515.3 859.9,515.3 859.9,486.7 846.7,486.7" fill="#e07a50" stroke="#6e6e73" stroke-width="1"/><polygon points="846.7,486.7 859.9,486.7 865.6,483.4 852.4,483.4" fill="#f0a07a" stroke="#6e6e73" stroke-width="1"/><polygon points="859.8,533.5 867.4,529.1 867.4,513.7 859.8,518.1" fill="#a02e00" stroke="#6e6e73" stroke-width="1"/><polygon points="844.8,533.5 859.8,533.5 859.8,518.1 844.8,518.1" fill="#c93400" stroke="#6e6e73" stroke-width="1"/><polygon points="844.8,518.1 859.8,518.1 867.4,513.7 852.4,513.7" fill="#e08a60" stroke="#6e6e73" stroke-width="1"/><polygon points="542.2,534.0 548.0,530.6 548.0,502.1 542.2,505.4" fill="#2f6fb5" stroke="#6e6e73" stroke-width="1"/><polygon points="524.6,534.0 542.2,534.0 542.2,505.4 524.6,505.4" fill="#4a90e2" stroke="#6e6e73" stroke-width="1"/><polygon points="524.6,505.4 542.2,505.4 548.0,502.1 530.4,502.1" fill="#7fb6f2" stroke="#6e6e73" stroke-width="1"/><polygon points="589.3,534.0 595.0,530.6 595.0,502.1 589.3,505.4" fill="#2f6fb5" stroke="#6e6e73" stroke-width="1"/><polygon points="571.7,534.0 589.3,534.0 589.3,505.4 571.7,505.4" fill="#4a90e2" stroke="#6e6e73" stroke-width="1"/><polygon points="571.7,505.4 589.3,505.4 595.0,502.1 577.4,502.1" fill="#7fb6f2" stroke="#6e6e73" stroke-width="1"/><polygon points="636.0,534.0 641.7,530.6 641.7,502.1 636.0,505.4" fill="#2f6fb5" stroke="#6e6e73" stroke-width="1"/><polygon points="618.4,534.0 636.0,534.0 636.0,505.4 618.4,505.4" fill="#4a90e2" stroke="#6e6e73" stroke-width="1"/><polygon points="618.4,505.4 636.0,505.4 641.7,502.1 624.1,502.1" fill="#7fb6f2" stroke="#6e6e73" stroke-width="1"/><polygon points="683.0,534.0 688.8,530.6 688.8,502.1 683.0,505.4" fill="#2f6fb5" stroke="#6e6e73" stroke-width="1"/><polygon points="665.4,534.0 683.0,534.0 683.0,505.4 665.4,505.4" fill="#4a90e2" stroke="#6e6e73" stroke-width="1"/><polygon points="665.4,505.4 683.0,505.4 688.8,502.1 671.2,502.1" fill="#7fb6f2" stroke="#6e6e73" stroke-width="1"/><polygon points="542.0,555.2 552.6,549.0 552.6,529.2 542.0,535.4" fill="#0058b0" stroke="#6e6e73" stroke-width="1"/><polygon points="520.0,555.2 542.0,555.2 542.0,535.4 520.0,535.4" fill="#0071e3" stroke="#6e6e73" stroke-width="1"/><polygon points="520.0,535.4 542.0,535.4 552.6,529.2 530.6,529.2" fill="#5aa7f0" stroke="#6e6e73" stroke-width="1"/><polygon points="589.0,555.2 599.7,549.0 599.7,529.2 589.0,535.4" fill="#0058b0" stroke="#6e6e73" stroke-width="1"/><polygon points="567.0,555.2 589.0,555.2 589.0,535.4 567.0,535.4" fill="#0071e3" stroke="#6e6e73" stroke-width="1"/><polygon points="567.0,535.4 589.0,535.4 599.7,529.2 577.7,529.2" fill="#5aa7f0" stroke="#6e6e73" stroke-width="1"/><polygon points="635.7,555.2 646.4,549.0 646.4,529.2 635.7,535.4" fill="#0058b0" stroke="#6e6e73" stroke-width="1"/><polygon points="613.7,555.2 635.7,555.2 635.7,535.4 613.7,535.4" fill="#0071e3" stroke="#6e6e73" stroke-width="1"/><polygon points="613.7,535.4 635.7,535.4 646.4,529.2 624.4,529.2" fill="#5aa7f0" stroke="#6e6e73" stroke-width="1"/><polygon points="682.8,555.2 693.4,549.0 693.4,529.2 682.8,535.4" fill="#0058b0" stroke="#6e6e73" stroke-width="1"/><polygon points="660.8,555.2 682.8,555.2 682.8,535.4 660.8,535.4" fill="#0071e3" stroke="#6e6e73" stroke-width="1"/><polygon points="660.8,535.4 682.8,535.4 693.4,529.2 671.4,529.2" fill="#5aa7f0" stroke="#6e6e73" stroke-width="1"/><polygon points="484.1,535.4 489.8,532.1 489.8,503.5 484.1,506.8" fill="#2f6fb5" stroke="#6e6e73" stroke-width="1"/><polygon points="466.5,535.4 484.1,535.4 484.1,506.8 466.5,506.8" fill="#4a90e2" stroke="#6e6e73" stroke-width="1"/><polygon points="466.5,506.8 484.1,506.8 489.8,503.5 472.2,503.5" fill="#7fb6f2" stroke="#6e6e73" stroke-width="1"/><polygon points="736.0,535.4 741.7,532.1 741.7,503.5 736.0,506.8" fill="#2f6fb5" stroke="#6e6e73" stroke-width="1"/><polygon points="718.4,535.4 736.0,535.4 736.0,506.8 718.4,506.8" fill="#4a90e2" stroke="#6e6e73" stroke-width="1"/><polygon points="718.4,506.8 736.0,506.8 741.7,503.5 724.1,503.5" fill="#7fb6f2" stroke="#6e6e73" stroke-width="1"/><polygon points="483.8,556.7 494.5,550.5 494.5,530.7 483.8,536.9" fill="#0058b0" stroke="#6e6e73" stroke-width="1"/><polygon points="461.8,556.7 483.8,556.7 483.8,536.9 461.8,536.9" fill="#0071e3" stroke="#6e6e73" stroke-width="1"/><polygon points="461.8,536.9 483.8,536.9 494.5,530.7 472.5,530.7" fill="#5aa7f0" stroke="#6e6e73" stroke-width="1"/><polygon points="735.7,556.7 746.4,550.5 746.4,530.7 735.7,536.9" fill="#0058b0" stroke="#6e6e73" stroke-width="1"/><polygon points="713.7,556.7 735.7,556.7 735.7,536.9 713.7,536.9" fill="#0071e3" stroke="#6e6e73" stroke-width="1"/><polygon points="713.7,536.9 735.7,536.9 746.4,530.7 724.4,530.7" fill="#5aa7f0" stroke="#6e6e73" stroke-width="1"/><polygon points="433.8,538.5 439.5,535.2 439.5,506.6 433.8,509.9" fill="#2f6fb5" stroke="#6e6e73" stroke-width="1"/><polygon points="416.2,538.5 433.8,538.5 433.8,509.9 416.2,509.9" fill="#4a90e2" stroke="#6e6e73" stroke-width="1"/><polygon points="416.2,509.9 433.8,509.9 439.5,506.6 421.9,506.6" fill="#7fb6f2" stroke="#6e6e73" stroke-width="1"/><polygon points="775.8,538.5 781.6,535.2 781.6,506.6 775.8,509.9" fill="#2f6fb5" stroke="#6e6e73" stroke-width="1"/><polygon points="758.2,538.5 775.8,538.5 775.8,509.9 758.2,509.9" fill="#4a90e2" stroke="#6e6e73" stroke-width="1"/><polygon points="758.2,509.9 775.8,509.9 781.6,506.6 764.0,506.6" fill="#7fb6f2" stroke="#6e6e73" stroke-width="1"/><polygon points="433.5,559.7 444.2,553.5 444.2,533.7 433.5,539.9" fill="#0058b0" stroke="#6e6e73" stroke-width="1"/><polygon points="411.5,559.7 433.5,559.7 433.5,539.9 411.5,539.9" fill="#0071e3" stroke="#6e6e73" stroke-width="1"/><polygon points="411.5,539.9 433.5,539.9 444.2,533.7 422.2,533.7" fill="#5aa7f0" stroke="#6e6e73" stroke-width="1"/><polygon points="775.6,559.7 786.2,553.5 786.2,533.7 775.6,539.9" fill="#0058b0" stroke="#6e6e73" stroke-width="1"/><polygon points="753.6,559.7 775.6,559.7 775.6,539.9 753.6,539.9" fill="#0071e3" stroke="#6e6e73" stroke-width="1"/><polygon points="753.6,539.9 775.6,539.9 786.2,533.7 764.2,533.7" fill="#5aa7f0" stroke="#6e6e73" stroke-width="1"/><polygon points="383.1,541.5 388.8,538.2 388.8,509.6 383.1,512.9" fill="#2f6fb5" stroke="#6e6e73" stroke-width="1"/><polygon points="365.5,541.5 383.1,541.5 383.1,512.9 365.5,512.9" fill="#4a90e2" stroke="#6e6e73" stroke-width="1"/><polygon points="365.5,512.9 383.1,512.9 388.8,509.6 371.2,509.6" fill="#7fb6f2" stroke="#6e6e73" stroke-width="1"/><polygon points="816.0,541.5 821.8,538.2 821.8,509.6 816.0,512.9" fill="#2f6fb5" stroke="#6e6e73" stroke-width="1"/><polygon points="798.4,541.5 816.0,541.5 816.0,512.9 798.4,512.9" fill="#4a90e2" stroke="#6e6e73" stroke-width="1"/><polygon points="798.4,512.9 816.0,512.9 821.8,509.6 804.2,509.6" fill="#7fb6f2" stroke="#6e6e73" stroke-width="1"/><polygon points="382.8,562.7 393.5,556.6 393.5,536.8 382.8,542.9" fill="#0058b0" stroke="#6e6e73" stroke-width="1"/><polygon points="360.8,562.7 382.8,562.7 382.8,542.9 360.8,542.9" fill="#0071e3" stroke="#6e6e73" stroke-width="1"/><polygon points="360.8,542.9 382.8,542.9 393.5,536.8 371.5,536.8" fill="#5aa7f0" stroke="#6e6e73" stroke-width="1"/><polygon points="815.8,562.7 826.4,556.6 826.4,536.8 815.8,542.9" fill="#0058b0" stroke="#6e6e73" stroke-width="1"/><polygon points="793.8,562.7 815.8,562.7 815.8,542.9 793.8,542.9" fill="#0071e3" stroke="#6e6e73" stroke-width="1"/><polygon points="793.8,542.9 815.8,542.9 826.4,536.8 804.4,536.8" fill="#5aa7f0" stroke="#6e6e73" stroke-width="1"/><polygon points="152.5,623.8 812.5,623.8 812.5,227.8 152.5,227.8" fill="#8944ab" stroke="#8944ab" stroke-width="1" fill-opacity="0.14" stroke-dasharray="8 4"/><polygon points="335.2,634.8 634.4,634.8 691.5,601.8 392.3,601.8" fill="#fff7ec" stroke="#c93400" stroke-width="1" fill-opacity="0.9" stroke-dasharray="5 3"/><line x1="398.49446786805333" y1="609.3" x2="398.49446786805333" y2="543.3" stroke="#6e6e73" stroke-width="1.5"/><circle cx="398.49446786805333" cy="543.3" r="4" fill="none" stroke="#6e6e73" stroke-width="1"/><line x1="486.49446786805333" y1="609.3" x2="486.49446786805333" y2="543.3" stroke="#6e6e73" stroke-width="1.5"/><circle cx="486.49446786805333" cy="543.3" r="4" fill="none" stroke="#6e6e73" stroke-width="1"/><line x1="574.4944678680533" y1="609.3" x2="574.4944678680533" y2="543.3" stroke="#6e6e73" stroke-width="1.5"/><circle cx="574.4944678680533" cy="543.3" r="4" fill="none" stroke="#6e6e73" stroke-width="1"/><line x1="662.4944678680533" y1="609.3" x2="662.4944678680533" y2="543.3" stroke="#6e6e73" stroke-width="1.5"/><circle cx="662.4944678680533" cy="543.3" r="4" fill="none" stroke="#6e6e73" stroke-width="1"/><line x1="399.39986187818954" y1="629.1" x2="399.39986187818954" y2="563.1" stroke="#0071e3" stroke-width="6"/><circle cx="399.39986187818954" cy="559.1" r="7" fill="#0071e3" stroke="none" stroke-width="1"/><line x1="496.19986187818955" y1="629.1" x2="496.19986187818955" y2="563.1" stroke="#0071e3" stroke-width="6"/><circle cx="496.19986187818955" cy="559.1" r="7" fill="#0071e3" stroke="none" stroke-width="1"/><line x1="592.9998618781896" y1="629.1" x2="592.9998618781896" y2="563.1" stroke="#0071e3" stroke-width="6"/><circle cx="592.9998618781896" cy="559.1" r="7" fill="#0071e3" stroke="none" stroke-width="1"/><line x1="743.883127360539" y1="354.1" x2="152.48201948224403" y2="240.14000000000004" stroke="#8944ab" stroke-width="0.8" stroke-dasharray="4 3"/><line x1="743.883127360539" y1="354.1" x2="812.482019482244" y2="240.14000000000004" stroke="#8944ab" stroke-width="0.8" stroke-dasharray="4 3"/><line x1="743.883127360539" y1="354.1" x2="812.482019482244" y2="611.5" stroke="#8944ab" stroke-width="0.8" stroke-dasharray="4 3"/><line x1="743.883127360539" y1="354.1" x2="152.48201948224403" y2="611.5" stroke="#8944ab" stroke-width="0.8" stroke-dasharray="4 3"/><polygon points="714.3,369.5 758.3,369.5 758.3,358.5 714.3,358.5" fill="#8944ab" stroke="#5a2d73" stroke-width="1"/><line x1="743.883127360539" y1="354.1" x2="743.883127360539" y2="486.1" stroke="#8944ab" stroke-width="2"/><polygon points="20.0,650.0 134.4,650.0 134.4,218.8 20.0,218.8" fill="#e9e9ee" stroke="#8e8e93" stroke-width="1" fill-opacity="0.85"/><polygon points="785.6,650.0 900.0,650.0 900.0,218.8 785.6,218.8" fill="#e9e9ee" stroke="#8e8e93" stroke-width="1" fill-opacity="0.85"/><polygon points="134.4,289.2 785.6,289.2 785.6,218.8 134.4,218.8" fill="#e9e9ee" stroke="#8e8e93" stroke-width="1" fill-opacity="0.85"/><text x="469.52627944162884" y="239.70000000000005" font-size="11" font-weight="700" fill="#6e6e73" text-anchor="middle">프로시니엄</text><text x="482.482019482244" y="210.22000000000003" font-size="11" font-weight="700" fill="#8944ab" text-anchor="middle">샤막 15×9m</text><text x="669.5781477158341" y="388.20000000000005" font-size="11" font-weight="700" fill="#1d1d1f" text-anchor="middle">3단 (+0.90) Gt / E.B / Dr / 모둠북 / 건반 2</text><text x="490.67302994931885" y="449.80000000000007" font-size="11" font-weight="700" fill="#6e6e73" text-anchor="middle">2단 코러스 4석</text><text x="803.0730299493189" y="454.20000000000005" font-size="11" font-weight="700" fill="#c93400" text-anchor="middle">2단 국악 4인</text><text x="604.7994475127582" y="487.20000000000005" font-size="11" font-weight="700" fill="#0071e3" text-anchor="middle">1단 스트링 10인</text><text x="515.2524207614472" y="596.1" font-size="11" font-weight="700" fill="#6e6e73" text-anchor="middle">DSC 연기 공간 (1번 국악 · 보컬 · 코러스 · 앙상블)</text><text x="743.883127360539" y="327.70000000000005" font-size="11" font-weight="700" fill="#8944ab" text-anchor="middle">프로젝터 3.0m · 빔 영사 범위</text><text x="706.3495863605215" y="133.76999999999998" font-size="11" font-weight="700" fill="#1d1d1f" text-anchor="middle">하늘막</text><text x="34" y="30" font-size="16" font-weight="700" fill="#1d1d1f" text-anchor="start">SP-04  축측도 (사투영: 객석 좌측 위에서 본 모습)</text><text x="34" y="50" font-size="11" font-weight="500" fill="#6e6e73" text-anchor="start">덧마루 30×3 내모임형: 중앙부 + 좌우 날개(15°). 붉은 점선 면은 쐐기 보정판 영역입니다</text></svg>