<svg width="700" height="720" xmlns="http://www.w3.org/2000/svg" viewBox="0 0 700 720" font-family="Pretendard Variable,Pretendard,Apple SD Gothic Neo,sans-serif" xmlns:xlink="http://www.w3.org/1999/xlink" role="img"><rect x="0" y="0" width="700" height="720" rx="0" fill="#fff" stroke="none" stroke-width="1"/><rect x="14.199999999999989" y="39" width="671.6" height="621" rx="0" fill="#fafafc" stroke="#8e8e93" stroke-width="1"/><line x1="5" y1="605.72" x2="695" y2="605.72" stroke="#8944ab" stroke-width="6"/><text x="350" y="625.72" font-size="12" font-weight="700" fill="#8944ab" text-anchor="middle">샤막 W15.0m (y 1.18m)</text><rect x="46.400000000000034" y="301.2" width="607.1999999999999" height="82.8" rx="0" fill="#ececef" stroke="#8e8e93" stroke-width="1"/><rect x="46.400000000000034" y="218.40000000000003" width="607.1999999999999" height="82.8" rx="0" fill="#e2e2e6" stroke="#8e8e93" stroke-width="1"/><rect x="46.400000000000034" y="135.60000000000002" width="607.1999999999999" height="82.8" rx="0" fill="#d6d6dc" stroke="#8e8e93" stroke-width="1"/><polygon points="350,-25.399999999999977 5,605.72 695,605.72" fill="#8944ab" opacity="0.10"/><line x1="350" y1="-25.399999999999977" x2="5" y2="605.72" stroke="#8944ab" stroke-width="1" stroke-dasharray="5 3"/><line x1="350" y1="-25.399999999999977" x2="695" y2="605.72" stroke="#8944ab" stroke-width="1" stroke-dasharray="5 3"/><rect x="327" y="-33.39999999999998" width="46" height="16" rx="3" fill="#8944ab" stroke="none" stroke-width="1"/><text x="350" y="-39.39999999999998" font-size="12" font-weight="700" fill="#8944ab" text-anchor="middle">프로젝터 (y 14.9m)</text><line x1="-27.19999999999999" y1="605.72" x2="-27.19999999999999" y2="-25.399999999999977" stroke="#8944ab" stroke-width="1"/><line x1="-32.19999999999999" y1="605.72" x2="-22.19999999999999" y2="605.72" stroke="#8944ab" stroke-width="1"/><line x1="-32.19999999999999" y1="-25.399999999999977" x2="-22.19999999999999" y2="-25.399999999999977" stroke="#8944ab" stroke-width="1"/><text x="-34.19999999999999" y="290.16" font-size="12" font-weight="600" fill="#8944ab" text-anchor="middle" transform="rotate(-90 -34.19999999999999 290.16)">투사 거리 13.72m</text><line x1="5" y1="649.72" x2="695" y2="649.72" stroke="#8944ab" stroke-width="1"/><line x1="5" y1="644.72" x2="5" y2="654.72" stroke="#8944ab" stroke-width="1"/><line x1="695" y1="644.72" x2="695" y2="654.72" stroke="#8944ab" stroke-width="1"/><text x="350" y="643.72" font-size="12" font-weight="600" fill="#8944ab" text-anchor="middle">영상 폭 15.0m (화면 가득)</text><text x="350" y="315" font-size="20" font-weight="700" fill="#8944ab" text-anchor="middle">투사비 0.915 : 1</text><text x="350" y="337" font-size="11" font-weight="500" fill="#6e6e73" text-anchor="middle">(투사 거리 ÷ 영상 폭, 와이드 렌즈 계열)</text><text x="20" y="28" font-size="15" font-weight="700" fill="#1d1d1f" text-anchor="start">SP-06  영사 기하 (평면 개략)</text></svg>